<svg width="18" height="17" fill="none" xmlns="http://www.w3.org/2000/svg"><path d="M9 1.534c2.403 0 2.687.009 3.636.05.877.037 1.354.176 1.67.292a2.8 2.8 0 011.035.636c.299.274.529.608.673.977.123.3.27.75.31 1.578.043.896.052 1.164.052 3.433 0 2.27-.009 2.538-.052 3.434-.04.829-.187 1.279-.31 1.578a2.902 2.902 0 01-1.707 1.613c-.317.116-.794.254-1.671.292-.948.041-1.233.05-3.636.05-2.402 0-2.687-.009-3.635-.05-.878-.038-1.354-.176-1.671-.292a2.809 2.809 0 01-1.035-.636 2.624 2.624 0 01-.673-.977c-.123-.3-.27-.75-.31-1.578-.043-.896-.052-1.165-.052-3.434s.01-2.537.053-3.433c.04-.829.186-1.279.31-1.578a2.61 2.61 0 01.673-.977c.29-.282.643-.5 1.034-.636.317-.116.793-.255 1.67-.292.95-.041 1.234-.05 3.636-.05zM9 .003c-2.443 0-2.75.01-3.71.051C4.334.095 3.68.24 3.108.45c-.6.213-1.144.548-1.594.98A4.15 4.15 0 00.475 2.934c-.222.54-.374 1.158-.418 2.063C.013 5.903.003 6.193.003 8.5c0 2.308.01 2.598.054 3.504.044.904.196 1.522.419 2.062.226.567.58 1.08 1.037 1.505.45.433.994.767 1.594.98.572.21 1.226.354 2.184.395.96.042 1.266.052 3.71.052 2.443 0 2.75-.01 3.709-.052.958-.04 1.612-.184 2.184-.395 1.208-.441 2.164-1.343 2.631-2.485.223-.54.375-1.158.419-2.062.043-.907.054-1.196.054-3.504 0-2.307-.01-2.597-.055-3.503-.043-.905-.195-1.522-.418-2.063a4.15 4.15 0 00-1.037-1.505 4.443 4.443 0 00-1.594-.98c-.572-.21-1.226-.354-2.184-.395C11.75.013 11.444.003 9 .003z" fill="#fff"/><path d="M9 4.137c-2.552 0-4.62 1.953-4.62 4.363S6.448 12.864 9 12.864s4.62-1.954 4.62-4.364S11.552 4.137 9 4.137zm0 7.196c-1.656 0-2.999-1.268-2.999-2.833 0-1.564 1.343-2.832 2.999-2.832 1.656 0 3 1.268 3 2.832 0 1.565-1.344 2.833-3 2.833zm4.803-6.349c.596 0 1.08-.457 1.08-1.02s-.484-1.02-1.08-1.02c-.597 0-1.08.457-1.08 1.02s.483 1.02 1.08 1.02z" fill="#fff"/></svg>