<svg width="18" height="17" fill="none" xmlns="http://www.w3.org/2000/svg"><g clip-path="url(#clip0)"><path d="M8.229 12.283c-.258-.098-.386-.59-.772-.491C6.943 13.56 6.3 15.624 5.271 17H3.73h.128c-.257-.688-.128-2.064 0-2.85.386-1.768 1.672-4.127 1.672-5.797 0-.688-.515-1.474-.386-2.359.257-1.572 3.214-2.948 4.114-1.179 1.157 2.064-2.443 4.52-.386 5.896.386.295 1.415.491 2.315.393 4.114-.688 4.628-7.272 1.285-8.746-4.885-2.26-10.285 1.18-9.9 4.717.258 1.376 2.058 2.064.515 3.341C.77 9.63 0 8.451 0 6.387 0 2.26 5.143-.49 10.8 0c3.6.295 6.686 2.555 7.2 5.11.257 2.26-.643 5.11-2.829 6.584-1.671 1.08-5.142 1.67-6.942.59z" fill="#fff"/></g><defs><clipPath id="clip0"><path fill="#fff" d="M0 0h18v17H0z"/></clipPath></defs></svg>