<svg width="18" height="17" fill="none" xmlns="http://www.w3.org/2000/svg"><path d="M16.16 4.28v.475C16.16 10.461 12.476 17 5.624 17 3.58 17 1.636 16.287 0 14.979h.92c1.74 0 3.273-.594 4.603-1.783-1.637 0-2.966-1.308-3.478-2.972.205.119.41.119.716.119.41 0 .716-.12 1.023-.12-1.84-.356-3.068-2.14-3.068-4.16.511.238 1.023.475 1.739.475C1.432 5.825.818 4.518.818 2.972c0-.832.205-1.545.512-2.14 1.738 2.616 4.5 4.28 7.568 4.399-.103-.238-.103-.595-.103-.832C8.795 2.02 10.432 0 12.477 0c1.125 0 2.046.476 2.66 1.308.817-.12 1.636-.595 2.352-.951-.307.95-.819 1.783-1.637 2.377.819-.119 1.534-.356 2.148-.713-.511.832-1.125 1.664-1.84 2.259z" fill="#fff"/></svg>