<svg width="78" height="120" fill="none" xmlns="http://www.w3.org/2000/svg"><path d="M10.292 4.09a2.986 2.986 0 00-.663-.743 3.112 3.112 0 00-1.949-.678c-.668 0-1.236.129-1.703.386A3.217 3.217 0 004.84 4.089c-.29.433-.5.925-.633 1.477a7.304 7.304 0 00-.2 1.712c0 .564.067 1.113.2 1.645.132.534.343 1.014.633 1.44.29.426.67.768 1.136 1.025.467.257 1.035.385 1.703.385.908 0 1.618-.275 2.13-.827.51-.552.822-1.279.936-2.182h2.876c-.075.84-.27 1.599-.586 2.276a5.456 5.456 0 01-1.25 1.73 5.321 5.321 0 01-1.816 1.092 6.698 6.698 0 01-2.29.376c-1.035 0-1.965-.179-2.791-.536a5.967 5.967 0 01-2.091-1.477 6.518 6.518 0 01-1.306-2.21 8.06 8.06 0 01-.455-2.737c0-1.004.152-1.935.455-2.794a6.684 6.684 0 011.306-2.247A5.966 5.966 0 014.888.732C5.716.368 6.646.186 7.68.186c.745 0 1.448.107 2.11.32a5.72 5.72 0 011.779.931 5.03 5.03 0 011.296 1.514c.341.602.556 1.292.643 2.07h-2.876a2.41 2.41 0 00-.34-.932zm10.607 2.398c-.322-.35-.811-.527-1.467-.527-.429 0-.785.073-1.07.216a2.035 2.035 0 00-.68.536c-.17.214-.291.44-.36.678-.07.238-.11.451-.123.64h4.372c-.127-.678-.35-1.192-.672-1.543zm-3.038 5.116c.403.389.984.583 1.741.583.543 0 1.01-.135 1.4-.404.392-.27.631-.555.72-.856h2.366c-.379 1.166-.96 2-1.742 2.502-.782.502-1.728.752-2.839.752-.77 0-1.463-.122-2.08-.366a4.33 4.33 0 01-1.572-1.044 4.688 4.688 0 01-.993-1.618 5.887 5.887 0 01-.35-2.069c0-.727.12-1.405.36-2.032a4.761 4.761 0 011.021-1.627 4.808 4.808 0 011.58-1.081c.612-.264 1.29-.395 2.034-.395.833 0 1.558.16 2.177.479.618.32 1.126.75 1.523 1.29.398.538.685 1.153.862 1.843.176.689.239 1.41.189 2.163h-7.059c.038.864.259 1.492.662 1.88zm10.162-7.392v1.806h.038a3.355 3.355 0 011.249-1.496c.278-.181.574-.323.89-.423.315-.1.643-.15.984-.15.176 0 .372.031.587.094v2.483a5.19 5.19 0 00-.455-.066 4.826 4.826 0 00-.51-.028c-.492 0-.909.082-1.25.244-.34.163-.615.385-.823.668a2.667 2.667 0 00-.445.987 5.361 5.361 0 00-.132 1.223v4.383h-2.687V4.212h2.554zm10.939 0v1.787h-1.969v4.815c0 .452.077.752.228.903.152.15.455.226.908.226.151 0 .297-.006.435-.019a3.5 3.5 0 00.398-.056v2.069a6.46 6.46 0 01-.758.075c-.276.013-.548.02-.813.02-.416 0-.811-.03-1.183-.086a2.795 2.795 0 01-.984-.329 1.753 1.753 0 01-.672-.696c-.164-.301-.245-.696-.245-1.185V6H32.68V4.212h1.628V1.296h2.686v2.916h1.97zm1.362 9.725h2.687V4.212h-2.687v9.725zm0-11.23h2.687v-2.2h-2.687v2.2zm3.785 3.292V4.212h1.608v-.753c0-.865.271-1.573.814-2.125.542-.552 1.363-.828 2.46-.828.24 0 .48.01.72.028.238.02.472.036.7.047v1.994a8.23 8.23 0 00-.985-.056c-.365 0-.627.085-.785.254-.157.169-.236.455-.236.856v.583h1.854v1.787h-1.854v7.938h-2.688V5.999H44.11zm7.777 7.938h2.689V4.212h-2.689v9.725zm0-11.23h2.689v-2.2h-2.689v2.2zm9.964 3.781c-.321-.35-.812-.527-1.467-.527-.429 0-.785.073-1.069.216a1.98 1.98 0 00-1.041 1.214c-.07.238-.11.451-.122.64h4.37c-.124-.678-.349-1.192-.672-1.543zm-3.038 5.116c.404.389.985.583 1.741.583.543 0 1.01-.135 1.4-.404.392-.27.632-.555.72-.856h2.365c-.377 1.166-.959 2-1.74 2.502-.784.502-1.729.752-2.84.752-.77 0-1.463-.122-2.08-.366a4.326 4.326 0 01-1.571-1.044c-.43-.452-.76-.99-.994-1.618a5.898 5.898 0 01-.35-2.069c0-.727.12-1.405.36-2.032s.579-1.169 1.022-1.627a4.806 4.806 0 011.58-1.081c.611-.264 1.29-.395 2.034-.395.833 0 1.558.16 2.176.479.619.32 1.126.75 1.524 1.29a5.26 5.26 0 01.86 1.843c.178.689.24 1.41.19 2.163h-7.058c.037.864.258 1.492.661 1.88zM73.251 7.89a2.815 2.815 0 00-.387-.979 2.174 2.174 0 00-.71-.687c-.29-.175-.655-.263-1.097-.263-.441 0-.814.088-1.117.263a2.1 2.1 0 00-.729.697 3.05 3.05 0 00-.396.987 5.27 5.27 0 00-.123 1.157c0 .376.043.752.13 1.128.09.377.232.713.428 1.007.195.295.44.533.738.715.296.182.653.272 1.069.272.442 0 .81-.087 1.107-.263a2 2 0 00.71-.706 3.16 3.16 0 00.377-1.005 5.83 5.83 0 00.115-1.166c0-.401-.038-.788-.115-1.158zm.115 4.805c-.317.527-.73.907-1.24 1.138-.511.232-1.088.348-1.732.348-.732 0-1.374-.14-1.93-.423a3.862 3.862 0 01-1.372-1.147 5.16 5.16 0 01-.814-1.665 6.951 6.951 0 01-.274-1.956c0-.652.091-1.282.274-1.89a4.888 4.888 0 01.814-1.61c.36-.463.81-.836 1.353-1.118.542-.282 1.173-.423 1.893-.423.58 0 1.132.122 1.655.366.524.245.937.606 1.24 1.082h.037V.507h2.688v13.43h-2.555v-1.242h-.037zM28.144 73.893h14.4c4.958 0 8.103-3.006 8.103-7.695 0-5.59-4.536-7.153-9.377-7.153H28.145v14.848zm0-19.658H39.64c6.53 0 9.193-2.344 9.193-6.853 0-5.953-4.233-6.792-9.193-6.792H28.144v13.645zM22.4 35.78h15.665c3.811 0 8.831 0 11.431 1.564 2.843 1.682 5.08 4.748 5.08 8.957 0 4.568-2.418 7.995-6.41 9.617v.12c5.324 1.083 8.224 5.05 8.224 10.342 0 6.31-4.536 12.322-13.123 12.322H22.401V35.78z" fill="#fff"/><path d="M38.234 19.634C17.339 19.634.399 36.472.399 57.241c0 20.77 16.94 37.607 37.835 37.607 20.897 0 37.837-16.838 37.837-37.607 0-20.77-16.94-37.607-37.837-37.607zM71.08 57.26c0 18.031-14.704 32.648-32.847 32.648-18.14 0-32.845-14.617-32.845-32.648 0-18.03 14.705-32.646 32.845-32.646 18.143 0 32.847 14.616 32.847 32.645zM7.384 102.972c-.136-.946-1.047-1.665-2.091-1.665-1.888 0-2.6 1.599-2.6 3.264 0 1.582.712 3.18 2.6 3.18 1.284 0 2.012-.878 2.17-2.13h2.039c-.216 2.371-1.863 3.888-4.21 3.888-2.958 0-4.7-2.197-4.7-4.938 0-2.825 1.742-5.022 4.7-5.022 2.105 0 3.871 1.226 4.127 3.423H7.384zm6.507 5.071c1.3 0 1.688-1.105 1.688-2.196 0-1.104-.388-2.209-1.688-2.209-1.285 0-1.676 1.105-1.676 2.209 0 1.091.391 2.196 1.676 2.196zm0-5.829c2.184 0 3.59 1.435 3.59 3.633 0 2.184-1.406 3.622-3.59 3.622-2.17 0-3.575-1.438-3.575-3.622 0-2.198 1.405-3.633 3.575-3.633zm4.689.186h1.806v1.277h.028c.347-.865 1.285-1.463 2.211-1.463.134 0 .294.025.416.065v1.757a3.61 3.61 0 00-.683-.065c-1.395 0-1.879.999-1.879 2.209v3.103h-1.9V102.4zm10.62 3.462c0-1.095-.443-2.224-1.661-2.224-1.246 0-1.647 1.105-1.647 2.224 0 1.117.428 2.181 1.66 2.181 1.247 0 1.647-1.064 1.647-2.181zm-5.144-3.462h1.81v.877h.026c.455-.732 1.205-1.063 2.061-1.063 2.172 0 3.148 1.743 3.148 3.699 0 1.838-1.016 3.556-3.04 3.556-.83 0-1.62-.36-2.075-1.039h-.028v3.276h-1.902V102.4zm11.544 5.643c1.3 0 1.69-1.105 1.69-2.196 0-1.104-.39-2.209-1.69-2.209-1.284 0-1.674 1.105-1.674 2.209 0 1.091.39 2.196 1.674 2.196zm0-5.829c2.185 0 3.594 1.435 3.594 3.633 0 2.184-1.41 3.622-3.594 3.622-2.169 0-3.574-1.438-3.574-3.622 0-2.198 1.405-3.633 3.574-3.633zm4.825.186h1.809v1.277h.028c.347-.865 1.284-1.463 2.209-1.463.133 0 .295.025.415.065v1.757a3.577 3.577 0 00-.683-.065c-1.393 0-1.876.999-1.876 2.209v3.103h-1.902V102.4zm9.525 3.513c-.325.282-.993.292-1.583.4-.59.118-1.125.321-1.125 1.012 0 .706.55.878 1.167.878 1.484 0 1.54-1.17 1.54-1.584v-.706zm-4.397-1.396c.109-1.772 1.702-2.303 3.256-2.303 1.379 0 3.041.305 3.041 1.954v3.583c0 .627.066 1.252.243 1.532h-1.931a3.01 3.01 0 01-.136-.667c-.6.627-1.484.853-2.328.853-1.314 0-2.357-.652-2.357-2.065 0-1.557 1.18-1.929 2.357-2.089 1.166-.174 2.251-.133 2.251-.907 0-.81-.566-.93-1.233-.93-.724 0-1.192.292-1.26 1.039h-1.903zm10.18-2.117h1.394v1.264h-1.394v3.406c0 .642.162.801.803.801a3.1 3.1 0 00.59-.052v1.477a7.283 7.283 0 01-1.113.067c-1.162 0-2.18-.268-2.18-1.638v-4.061h-1.154V102.4h1.153v-2.066h1.901v2.066zm2.357 6.883h1.902V102.4h-1.901v6.883zm0-7.95h1.902v-1.558h-1.901v1.558zm6.494 6.71c1.302 0 1.69-1.105 1.69-2.196 0-1.104-.388-2.209-1.69-2.209-1.285 0-1.674 1.105-1.674 2.209 0 1.091.39 2.196 1.674 2.196zm0-5.829c2.185 0 3.594 1.435 3.594 3.633 0 2.184-1.409 3.622-3.594 3.622-2.168 0-3.573-1.438-3.573-3.622 0-2.198 1.405-3.633 3.573-3.633zm4.823.186h1.809v.959h.04c.482-.774 1.312-1.145 2.117-1.145 2.022 0 2.53 1.131 2.53 2.835v4.234h-1.902v-3.889c0-1.131-.336-1.692-1.218-1.692-1.033 0-1.475.574-1.475 1.973v3.608h-1.901V102.4zM.54 119.935h75.426v-4.797H.541v4.797zm76.562-20.013a.516.516 0 00-.233-.04h-.163v.391h.173a.53.53 0 00.182-.022c.075-.031.113-.086.113-.171 0-.078-.025-.13-.072-.158zm-.207-.17c.135 0 .233.014.297.04.112.045.168.136.168.273 0 .097-.035.168-.106.213a.402.402 0 01-.157.053.264.264 0 01.187.105.306.306 0 01.058.168v.079a.735.735 0 00.013.136l.007.013h-.18l-.002-.009-.003-.013-.005-.035v-.085c0-.125-.034-.208-.102-.248a.485.485 0 00-.214-.034h-.15v.424h-.192v-1.08h.381zm-.583-.054a.814.814 0 00-.248.599c0 .235.082.438.246.603.166.166.367.25.604.25a.816.816 0 00.602-.25.822.822 0 00.249-.603.814.814 0 00-.25-.6.82.82 0 00-.601-.249.82.82 0 00-.602.25zm1.303 1.296a.958.958 0 01-.701.289.953.953 0 01-.7-.289.956.956 0 01-.288-.699c0-.27.097-.502.29-.694a.948.948 0 01.698-.287.96.96 0 01.701.287c.194.191.29.423.29.694a.951.951 0 01-.29.699z" fill="#fff"/></svg>