<svg width="37" height="22" fill="none" xmlns="http://www.w3.org/2000/svg"><path d="M27.48 3.15L28.05 5H30l-1.54 1.16L29 8l-1.52-1.17L26 7.93l.56-1.77L25 5h1.89l.59-1.85zm0 11l.57 1.85H30l-1.53 1.14L29 19l-1.54-1.14L26 18.94l.56-1.77L25 16h1.89l.59-1.85zm-4-7L24.05 9H26l-1.53 1.14L25 12l-1.53-1.14L22 12l.57-1.77L21 9h1.89l.59-1.85zm8 0L32.05 9H34l-1.54 1.14L33 12l-1.54-1.14L30 12l.56-1.77L29 9h1.89l.59-1.85zM0 0h37v1H0V0zm0 21h37v1H0v-1z" fill="#fff"/><path d="M0 0h1v22H0V0zm36 0h1v22h-1V0z" fill="#fff"/><path d="M0 12h19v1H0v-1z" fill="#fff"/><path d="M18.05.05h1v13h-1v-13z" fill="#fff"/><path d="M.05 12.05h19v1h-19v-1zM7.45.25v4.2H.15v.8h8.1v-5h-.8z" fill="#fff"/><path d="M8.35 5.25H.05v-1h7.3V.05h1.1v5.2h-.1zm-8.1-.2h7.9V.35h-.6v4.2H.25v.5zm10.1-4.8v5h8.5v-.9h-7.6V.25h-.9z" fill="#fff"/><path d="M19 5.25h-8.7V.05h1.1v4.2H19v1zm-8.4-.2h8.2v-.6h-7.7V.35h-.6v4.7h.1zM.35 7.35v.8h7.1v4.6h.8v-5.4H.35z" fill="#fff"/><path d="M8.35 13h-1V8.35H.25v-1.1h8.2L8.35 13zm-.7-.3h.5V7.55H.45v.5h7.1l.1 4.6v.05zm2.7-5.35v5.4h.8v-4.6h7.5v-.8h-8.3z" fill="#fff"/><path d="M11.25 13h-1V7.25h8.6v1.1h-7.5l-.1 4.6V13zm-.7-.3h.5V8.05h7.5v-.5h-8.1v5.1l.1.05zM.65 1.45l-.5.7 4.1 2.9.5-.7-4.1-2.9z" fill="#fff"/><path d="M4.25 5.25L0 2.25l.6-.9.1.1 4.2 2.9-.65.9zm-3.9-3.1l3.9 2.7.3-.5-3.9-2.7-.3.5zm2.9-1.9l-.5.6 4.6 3.5.5-.7-4.6-3.4z" fill="#fff"/><path d="M7.45 4.55L2.65.85l.6-.8 4.8 3.7-.6.8zM3 .85l4.4 3.4.3-.5L3.25.35 3 .85zm15.25.5l-4.2 3 .4.7 4.2-3-.4-.7z" fill="#fff"/><path d="M14.45 5.25l-.6-.9.1-.1 4.3-3.1.6.9-4.4 3.2zm-.3-.9l.3.5 4-2.8-.3-.5-4 2.8zm1.6-4.2l-5 3.7.5.7 5-3.7-.5-.7z" fill="#fff"/><path d="M11.15 4.65l-.6-.9L15.75 0l.6.9-5.2 3.75zm-.3-.8l.3.5 4.9-3.6-.3-.5-4.9 3.6zm-6.7 3.6l-4 2.8.5.7 4-2.8-.5-.7z" fill="#fff"/><path d="M.65 11.15l-.6-.9 4.2-3 .6.9-.2.1-4 2.9zm-.3-.8l.3.5 3.8-2.7-.4-.5-3.7 2.7zm7.1-2.3l-5.4 4 .5.7 5.4-4-.5-.7z" fill="#fff"/><path d="M2.45 13l-.6-.9 5.6-4.2.6.9-.1.1-5.5 4.1zm-.3-.8l.3.5 5.2-3.9-.3-.5-5.2 3.9zm12.1-4.75l-.5.7 4.6 3.2.5-.7-4.6-3.2z" fill="#fff"/><path d="M18.35 11.55l-.1-.1-4.7-3.3.6-.9.1.1 4.7 3.3-.6.9zM14 8.05l4.4 3.1.3-.5-4.4-3.1-.3.5zm-2.85 0l-.5.7 5.2 4 .5-.7-5.2-4z" fill="#fff"/><path d="M16 12.85l-5.4-4.1.7-.9.1.1 5.3 4.1-.7.8zm-5.1-4.2l5 3.8.3-.5-5-3.8-.3.5z" fill="#fff"/></svg>