<svg width="37" height="22" fill="none" xmlns="http://www.w3.org/2000/svg"><g clip-path="url(#clip0)" fill="#CCC"><path d="M0 0v22h37V0H0zm36 21H1V1h35v20z"/><path d="M17.8 4.8l.7-.5.7.5-.3-.9.8-.5h-.9l-.3-.8-.3.8h-.9l.8.5-.3.9zm-3.7 1l.7-.6.8.6-.3-.9.7-.5h-.9l-.3-.8-.2.8h-.9l.7.5-.3.9zm-1.9.4l-.3.9H11l.7.5-.2.8.7-.5.7.5-.3-.8.7-.5h-.9l-.2-.9zm-1 5.4l.7.5-.3-.8.7-.6h-.8l-.3-.8-.3.8H10l.7.6-.2.8.7-.5zm1.2 2.8l-.2-.8-.3.8H11l.7.5-.2.9.7-.6.7.6-.3-.9.7-.5h-.9zm2.7 2.7l-.3-.8-.2.8h-.9l.7.5-.3.8.7-.5.8.5-.3-.8.7-.5h-.9zm3.7 1l-.3-.9-.3.9h-.9l.8.5-.3.8.7-.5.7.5-.3-.8.8-.5h-.9zm3.6-1l-.2-.8-.3.8H21l.7.5-.2.8.7-.5.7.5-.3-.8.7-.5h-.9zm2.7-2.7l-.3-.8-.2.8h-.9l.7.5-.3.9.7-.6.8.6-.3-.9.7-.5h-.9zm1.9-3.7h-.9l-.3-.8-.3.8h-.8l.7.6-.3.8.7-.5.7.5-.2-.8.7-.6zm-2.9-2.3l.7-.5.8.5-.3-.8.7-.5h-.9l-.3-.9-.2.9h-.9l.7.5-.3.8zm-1.9-4.8l-.3.8H21l.7.5-.2.9.7-.6.7.6-.3-.9.7-.5h-.9l-.2-.8z"/></g><defs><clipPath id="clip0"><path fill="#fff" d="M0 0h37v22H0z"/></clipPath></defs></svg>